HIERARCHY
ROOT Hips
{
	OFFSET 0.000000 0.000000 0.000000 
	CHANNELS 6 Xposition Yposition Zposition Yrotation Zrotation Xrotation 
	JOINT Lumbar
	{
		OFFSET 0.000000 0.000000 0.000000 
		CHANNELS 3 Zrotation Xrotation Yrotation
		JOINT Neck
		{
			OFFSET 0.000000 0.445665 0.000000 
			CHANNELS 3 Zrotation Xrotation Yrotation
			End Site
			{
				OFFSET 0.000000 0.227535 0.000000 
			}
		}
		JOINT RightShoulder
		{
			OFFSET 0.019635 0.377685 0.194865 
			CHANNELS 3 Zrotation Xrotation Yrotation
			JOINT RightElbow
			{
				OFFSET 0.000000 -0.243375 0.000000 
				CHANNELS 2 Zrotation Yrotation
				JOINT RightWrist
				{
					OFFSET 0.000000 -0.264825 0.000000 
					CHANNELS 2 Zrotation Xrotation
					End Site
					{
						OFFSET 0.006600 -0.176220 0.000990 
					}
				}
			}
		}
		JOINT LeftShoulder
		{
			OFFSET 0.019635 0.377685 -0.194865 
			CHANNELS 3 Zrotation Xrotation Yrotation
			JOINT LeftElbow
			{
				OFFSET 0.000000 -0.243375 0.000000 
				CHANNELS 2 Zrotation Yrotation
				JOINT LeftWrist
				{
					OFFSET 0.000000 -0.264825 0.000000 
					CHANNELS 2 Zrotation Xrotation
					End Site
					{
						OFFSET 0.006600 -0.176220 -0.000990 
					}
				}
			}
		}
	}
	JOINT RightHip
	{
		OFFSET 0.052140 -0.069960 0.075570 
		CHANNELS 3 Zrotation Xrotation Yrotation
		JOINT RightKnee
		{
			OFFSET 0.000000 -0.402270 0.000000 
			CHANNELS 1 Zrotation
			JOINT RightAnkle
			{
				OFFSET 0.000000 -0.404085 0.000000 
				CHANNELS 3 Zrotation Xrotation Yrotation
				End Site
				{
					OFFSET 0.204105 -0.089430 0.008415 
				}
			}
		}
	}
	JOINT LeftHip
	{
		OFFSET 0.052140 -0.069960 -0.075570 
		CHANNELS 3 Zrotation Xrotation Yrotation
		JOINT LeftKnee
		{
			OFFSET 0.000000 -0.402270 0.000000 
			CHANNELS 1 Zrotation
			JOINT LeftAnkle
			{
				OFFSET 0.000000 -0.404085 0.000000 
				CHANNELS 3 Zrotation Xrotation Yrotation
				End Site
				{
					OFFSET 0.204105 -0.089430 -0.008415 
				}
			}
		}
	}
}
MOTION
Frames: 30
Frame Time: 0.02
-2.41555 -0.00617 1.05438 1049.86521 -42.99398 -4.75524 15.56892 0.92558 -41.61434 -24.87032 7.12526 -0.83079 22.7408 -36.04846 1.47964 137.60939 112.07946 -19.05383 -7.53247 15.06642 39.92049 -18.4652 42.46856 -80.59812 2.55566 8.00362 76.87816 13.92285 -40.62223 -6.93701 -31.73874 4.74392 3.1645 64.24758 15.78001 6.70397 -49.2803 -7.97079 1.29082 1.30336
-2.39985 -0.00435 1.06429 1049.90979 -43.22188 -4.97717 15.43101 0.96048 -41.06883 -24.93467 7.43904 -0.83079 22.24314 -35.64106 1.04364 137.6325 112.2325 -19.06636 -7.85927 12.22372 38.39116 -16.10576 41.85756 -80.60862 2.85642 7.94466 76.57443 13.92286 -40.6223 -7.64038 -31.37499 4.45366 3.05334 65.07672 16.02332 5.29345 -51.4819 -8.55853 1.08511 1.2104
-2.38475 -0.00143 1.07396 1049.52472 -43.49796 -5.43175 15.20087 0.96778 -40.21809 -25.01326 7.85619 -0.83079 21.71825 -34.96631 0.64831 137.61939 112.34911 -19.11113 -8.36401 9.28233 36.89637 -13.47828 41.03637 -80.64631 3.20017 7.77338 76.46144 13.92286 -40.62242 -8.88289 -30.93728 4.45069 3.11396 66.23674 16.36597 3.37078 -53.77739 -9.35029 0.86153 1.11496
-2.3694 0.00099 1.0837 1049.35308 -43.74496 -5.76605 15.01536 0.98057 -39.51289 -25.07987 8.18567 -0.83079 21.22686 -34.42727 0.25282 137.62373 112.44067 -19.12212 -8.77252 6.40675 35.38415 -10.96944 40.27684 -80.67547 3.51771 7.63665 76.23561 13.92286 -40.6225 -9.85134 -30.50974 4.31496 3.09756 67.24784 16.64838 1.68552 -56.00783 -10.04163 0.65044 1.02272
-2.35391 0.00339 1.09361 1049.10743 -44.02384 -6.15926 14.819 1.02288 -38.77928 -25.167 8.68113 -0.83079 20.64599 -33.82402 -0.2165 137.62494 112.70263 -19.21918 -9.24424 3.42984 33.86975 -8.46017 39.64518 -80.68935 3.87054 7.56983 76.10342 13.92287 -40.62261 -10.9346 -30.17315 4.18459 3.07422 68.25488 16.99083 -0.02895 -58.34367 -10.77118 0.41947 0.92117
-2.33887 0.0061 1.10309 1048.91331 -44.24849 -6.48607 14.62553 0.99738 -38.0313 -25.21654 8.85836 -0.83079 20.24475 -33.29466 -0.52576 137.62364 112.60748 -19.14475 -9.62601 0.64535 32.37339 -5.89738 38.70837 -80.74094 4.15739 7.33244 75.82835 13.92287 -40.62269 -11.90825 -29.63253 4.11286 3.10712 69.34705 17.23594 -1.79409 -60.46437 -11.46679 0.22703 0.83908
-2.3249 0.00942 1.11149 1048.96115 -44.29488 -6.57108 14.43235 0.7897 -37.32956 -25.14959 8.12321 -0.83079 20.35133 -33.00913 -0.3769 137.62457 111.47602 -18.56279 -9.73035 -1.58101 30.89889 -3.20606 36.91544 -80.89286 4.25172 6.62938 75.10592 13.92287 -40.6227 -12.46475 -28.5474 4.13403 3.25309 70.6024 17.15363 -3.65351 -62.12803 -12.02763 0.13516 0.8056
-2.31135 0.013 1.11946 1049.07642 -44.28742 -6.58156 14.2503 0.51496 -36.62209 -25.0462 7.06687 -0.83079 20.63896 -32.81176 -0.07273 137.62401 109.99479 -17.81152 -9.73583 -3.60841 29.44664 -0.48165 34.83658 -81.08117 4.27774 5.76266 74.23582 13.92287 -40.62269 -12.88953 -27.26024 4.20598 3.45009 71.92686 16.97577 -5.531 -63.53659 -12.54577 0.08442 0.79273
-2.29761 0.01647 1.1276 1049.16369 -44.31556 -6.62795 14.08264 0.27223 -35.90971 -24.96595 6.16334 -0.83079 20.84019 -32.59168 0.14219 137.62381 108.71592 -17.15298 -9.77736 -5.72746 27.99741 2.19788 32.93186 -81.25085 4.33309 4.98463 73.44068 13.92287 -40.62269 -13.3657 -26.06658 4.25266 3.62422 73.21782 16.86512 -7.34773 -64.96559 -13.07581 0.02194 0.77437
-2.2839 0.01999 1.13585 1049.22409 -44.29973 -6.67514 13.83015 0.02253 -35.21755 -24.85885 5.23302 -0.83079 21.05707 -32.29092 0.43456 137.62373 107.26359 -16.42655 -9.86214 -7.84719 26.49154 5.01931 30.83099 -81.4303 4.3947 4.14097 72.62193 13.92287 -40.62268 -13.90001 -24.86421 4.31294 3.80302 74.54285 16.66023 -9.40447 -66.82631 -13.64119 -0.06949 0.74011
-2.27022 0.02342 1.14377 1049.36306 -44.36046 -6.69826 13.75762 -0.22881 -34.48693 -24.79824 4.2827 -0.83079 21.28566 -32.18016 0.60545 137.62347 106.07611 -15.80403 -9.83152 -9.91415 25.11136 7.54151 29.07614 -81.59773 4.42975 3.39828 71.8109 13.92287 -40.62268 -14.27028 -23.63156 4.36027 3.9819 75.79186 16.62419 -10.95862 -67.69422 -14.12462 -0.09192 0.74318
-2.25652 0.02661 1.15095 1049.69443 -44.65884 -6.68826 14.18439 -0.46275 -33.6444 -24.88041 3.34303 -0.83079 21.49344 -32.59476 0.37181 137.62372 105.82837 -15.48181 -9.50193 -11.90643 24.04859 9.29692 28.32711 -81.72256 4.37831 2.95949 71.09227 13.92288 -40.6227 -14.26137 -22.37644 4.29495 4.14813 76.96499 17.10799 -11.10628 -66.16526 -14.35794 0.07186 0.84658
-2.24283 0.02969 1.1578 1050.10511 -45.03326 -6.65385 14.79118 -0.69656 -32.76635 -25.00972 2.39836 -0.83079 21.70788 -33.19442 0.01543 137.62388 105.83928 -15.27467 -9.05981 -13.84762 23.1159 10.73681 27.9417 -81.83405 4.30709 2.63059 70.38009 13.92287 -40.62266 -14.08426 -21.09513 4.22347 4.31153 78.0334 17.75955 -10.7382 -63.60082 -14.51935 0.29874 0.98377
-2.22912 0.03277 1.16477 1050.48836 -45.36425 -6.61795 15.31293 -0.93441 -31.91063 -25.11353 1.46106 -0.83079 21.92609 -33.69644 -0.26369 137.62392 105.64784 -15.03358 -8.67093 -15.79712 22.13936 12.27449 27.40277 -81.95182 4.26521 2.26269 69.63981 13.92288 -40.62273 -13.95068 -19.81963 4.1981 4.47612 79.04401 18.31313 -10.62494 -61.31478 -14.7304 0.4981 1.10735
-2.21551 0.03606 1.17189 1050.84188 -45.73157 -6.62763 15.84949 -1.15937 -31.02789 -25.23253 0.48222 -0.83079 22.12468 -34.25968 -0.62512 137.62473 105.7907 -14.71079 -8.26882 -17.80318 21.09917 14.00288 26.80097 -82.0698 4.13811 1.84585 68.99656 13.92288 -40.62272 -13.94039 -18.56637 3.99986 4.64458 80.48573 18.95245 -10.46494 -59.79837 -14.8532 0.71021 1.23513
-2.20166 0.03887 1.1786 1051.26961 -46.04106 -6.54392 16.39675 -1.40832 -30.19372 -25.3325 -0.39599 -0.83079 22.35986 -34.7368 -0.84997 137.6237 105.31771 -14.58561 -7.87009 -19.68125 20.22216 15.2626 26.42428 -82.18389 4.1809 1.55539 68.1599 13.92284 -40.62252 -13.64929 -17.25868 4.14948 4.80166 81.02437 19.45771 -10.23109 -56.47759 -15.16242 0.88987 1.34828
-2.18725 0.04046 1.18437 1051.93119 -46.1801 -6.15308 16.93877 -1.74008 -29.49814 -25.36072 -1.08881 -0.83079 22.72338 -34.94296 -0.63676 137.6199 102.9584 -14.99703 -7.49764 -21.22345 19.76408 15.26959 26.54702 -82.28866 4.73038 1.62121 66.74305 13.92297 -40.62314 -12.50229 -15.85022 5.34503 4.94345 78.91337 19.52242 -10.34814 -48.07368 -15.83142 1.14477 1.53382
-2.17257 0.04155 1.18973 1052.65474 -46.25705 -5.67953 17.48352 -2.09275 -28.85384 -25.36984 -1.66119 -0.83079 23.11705 -35.05338 -0.28836 137.61388 99.9951 -15.60071 -7.13513 -22.63792 19.4656 14.82184 26.89093 -82.39012 5.44575 1.80528 65.14055 13.92275 -40.62213 -11.10247 -14.38325 6.8737 5.07015 75.92863 19.45229 -10.33934 -37.95713 -16.71679 1.33543 1.68389
-2.15795 0.04282 1.19521 1053.31872 -46.35761 -5.28068 18.02096 -2.42442 -28.18851 -25.39284 -2.22554 -0.83079 23.47715 -35.19924 -0.02295 137.60731 97.39031 -16.1046 -6.77523 -24.10949 19.09382 14.60612 27.15743 -82.49414 6.06407 1.91309 63.65279 13.92285 -40.62251 -9.89797 -12.91275 8.19616 5.19412 73.46517 19.4637 -10.09305 -28.85791 -17.62425 1.43137 1.76675
-2.14359 0.04428 1.20094 1054.12072 -46.48048 -4.72515 18.59054 -2.80387 -27.51105 -25.39527 -3.05484 -0.83079 23.92193 -35.38564 0.3291 137.60711 94.43925 -16.66447 -6.38041 -25.58618 18.72979 14.27415 27.34091 -82.5933 6.77311 2.11803 62.03627 13.92337 -40.62504 -8.34533 -11.55851 9.75497 5.36091 70.48208 19.39571 -11.02818 -18.71276 -18.04595 2.0343 2.18981
-2.12861 0.04521 1.20606 1054.64565 -46.54085 -4.4755 19.09122 -3.08976 -26.87311 -25.4357 -3.30408 -0.83079 24.1968 -35.46251 0.53459 137.59335 92.0631 -17.15236 -6.06322 -27.01877 18.38589 14.07811 27.74261 -82.70191 7.33284 2.14941 60.64459 13.92156 -40.61656 -7.46329 -9.96096 10.89431 5.43194 68.36472 19.45848 -9.53551 -10.35364 -19.5002 1.58823 1.91145
-2.1121 0.0449 1.20974 1054.41776 -46.4466 -5.10089 19.402 -3.10308 -26.31965 -25.5824 -1.97732 -0.83079 23.99902 -35.25758 0.30089 137.54089 91.42103 -17.39049 -5.94978 -28.39234 18.05832 14.38869 28.71326 -82.83857 7.43963 1.65441 59.91414 13.92463 -40.63047 -8.46936 -7.6027 10.85026 5.26877 68.94186 19.91797 -0.88647 -7.3467 -24.02666 -1.93778 -0.43373
-2.09495 0.04405 1.21279 1053.90356 -46.29099 -6.03502 19.64203 -3.02293 -25.80767 -25.76785 -0.0728 -0.83079 23.62795 -34.94451 -0.08392 137.47529 91.37936 -17.54987 -5.91631 -29.71938 17.74551 14.84884 29.89014 -82.98501 7.39042 0.98355 59.41835 13.92284 -40.62342 -10.16535 -5.02284 10.36379 5.0054 70.40386 20.51201 10.11072 -6.20163 -29.5357 -6.48053 -3.45819
-2.07804 0.04338 1.21604 1053.50183 -46.16091 -6.82154 19.91319 -2.99195 -25.28351 -25.93824 1.56636 -0.83079 23.33417 -34.68282 -0.39828 137.41675 91.0598 -17.74715 -5.85206 -31.04852 17.42465 15.22993 30.95759 -83.12588 7.41293 0.40454 58.81706 13.91648 -40.5918 -11.56223 -2.60988 10.04073 4.76976 71.40245 21.04236 19.71083 -4.20816 -34.4135 -10.42749 -6.08047
-2.06135 0.04297 1.21966 1053.17604 -46.03749 -7.63679 20.18984 -2.93469 -24.72871 -26.09955 3.22649 -0.83079 23.04951 -34.41172 -0.7163 137.35312 90.73236 -17.94168 -5.76424 -32.45743 17.11255 15.64491 32.09993 -83.27011 7.43822 -0.22082 58.20008 13.94054 -40.70469 -12.88653 0.09215 9.88116 4.60631 72.63019 21.5804 30.70036 -2.1625 -40.0717 -14.94083 -9.09724
-2.04404 0.0419 1.22235 1052.62424 -45.88787 -8.46555 20.43702 -2.90815 -24.25226 -26.28632 4.97232 -0.83079 22.70196 -34.13171 -1.06333 137.29754 90.58205 -18.12146 -5.74484 -33.68599 16.78681 16.02685 33.13153 -83.41129 7.41791 -0.79273 57.67941 13.89784 -40.51086 -14.53257 2.23448 9.28053 4.27197 73.60096 22.13419 39.36223 -0.69179 -44.34361 -18.51558 -11.45492
-2.02519 0.03905 1.2228 1051.51 -45.66851 -9.26514 20.62904 -3.00204 -23.93604 -26.55859 6.86636 -0.83079 22.24374 -33.88885 -1.46199 137.26268 90.68591 -18.27157 -5.89171 -34.46794 16.39493 16.31578 33.81306 -83.53392 7.31572 -1.17621 57.32193 13.69121 -39.48188 -16.87029 2.86027 7.49183 3.46402 73.66005 22.71461 40.9287 -0.35093 -44.46785 -19.24493 -11.81082
-2.00575 0.03558 1.22231 1050.17984 -45.42729 -10.06603 20.79155 -3.1274 -23.70538 -26.85063 8.816 -0.83079 21.72473 -33.63493 -1.8834 137.23718 90.96469 -18.40968 -6.10558 -35.06206 15.99491 16.56116 34.37438 -83.65854 7.17229 -1.49973 57.06293 13.4141 -38.14411 -19.51396 2.9014 5.28734 2.49267 73.4315 23.30332 40.0873 -0.53411 -43.17454 -18.99527 -11.4825
-1.98658 0.03246 1.22216 1048.95327 -45.20487 -10.86129 20.96246 -3.23008 -23.46573 -27.11754 10.7052 -0.83079 21.21925 -33.36302 -2.28987 137.21066 91.22681 -18.55818 -6.29031 -35.71801 15.6112 16.80718 34.9847 -83.78236 7.0415 -1.85027 56.78922 13.15654 -36.94283 -22.03783 3.15269 3.32317 1.61324 73.32994 23.87911 40.4102 -0.48699 -42.58392 -19.19665 -11.47776
-1.96734 0.02902 1.22236 1047.69212 -44.94388 -11.69006 21.15453 -3.36557 -23.10222 -27.45396 12.7641 -0.83079 20.76511 -33.18322 -2.7222 137.17045 91.25277 -18.68491 -6.47083 -36.47616 15.16555 17.14288 35.62348 -83.88993 6.92619 -2.2091 56.39572 12.95108 -35.75538 -24.50657 3.63766 1.12759 0.65516 73.2754 24.50056 40.52384 -0.46851 -41.78995 -19.40745 -11.44428
